<svg version="1.1" id="Layer_1" xmlns="http://www.w3.org/2000/svg" xmlns:xlink="http://www.w3.org/1999/xlink" x="0px" y="0px"
	 width="100%" viewBox="0 0 256 256" enable-background="new 0 0 256 256" xml:space="preserve">
<path fill="#000000" opacity="1.000000" stroke="none" 
	d="
M140.000000,257.000000 
	C93.333336,257.000000 47.166672,257.000000 1.000006,257.000000 
	C1.000004,171.666672 1.000004,86.333351 1.000002,1.000018 
	C86.333321,1.000012 171.666641,1.000012 257.000000,1.000006 
	C257.000000,86.333313 257.000000,171.666626 257.000000,256.999969 
	C218.166672,257.000000 179.333328,257.000000 140.000000,257.000000 
M195.967697,159.056549 
	C195.918427,139.382477 195.869171,119.708397 195.986252,99.295197 
	C195.911530,98.544258 195.836807,97.793320 196.112305,96.275269 
	C196.085602,92.158920 196.058884,88.042572 195.992554,83.143074 
	C195.320084,78.412849 193.445618,74.422585 188.795837,71.281921 
	C185.192413,70.260109 181.588974,69.238304 177.058624,68.083771 
	C145.712692,68.128365 114.366753,68.172966 82.197311,68.048035 
	C70.279167,68.981285 63.680527,74.863586 63.101967,83.966721 
	C62.786251,88.934296 63.167080,93.946144 63.129948,99.606102 
	C63.182178,100.051094 63.234413,100.496094 63.086685,101.823677 
	C63.134869,104.228722 63.183052,106.633759 63.082047,109.672096 
	C63.137386,110.098808 63.192726,110.525513 63.076153,111.885880 
	C63.101894,128.262878 63.127640,144.639893 62.953793,161.919083 
	C62.942059,163.584946 62.946117,165.251099 62.915993,166.916626 
	C62.739685,176.664856 66.601624,184.431870 75.747635,187.995804 
	C82.924866,190.792526 90.678352,193.026764 98.308464,193.540314 
	C111.286598,194.413818 124.370224,193.836472 137.407257,193.680084 
	C147.178238,193.562881 156.974823,193.520920 166.705978,192.757202 
	C175.421326,192.073181 183.903168,189.813126 190.202957,183.170563 
	C191.874039,181.408569 195.242325,179.618851 193.051559,175.540039 
	C193.051559,175.540039 193.091522,175.044998 193.783752,174.720383 
	C194.463730,169.807495 195.143723,164.894592 195.967697,159.056549 
z"/>
<path fill="#D7DDE7" opacity="1.000000" stroke="none" 
	d="
M63.248062,110.952225 
	C63.192726,110.525513 63.137386,110.098808 63.511887,109.217079 
	C64.304451,105.849854 64.667175,102.937653 65.449898,100.035110 
	C68.814888,100.363091 71.757698,100.930244 74.705261,100.956192 
	C86.805679,101.062721 98.907547,101.004501 110.889206,101.388344 
	C109.763397,102.177483 108.649734,103.099113 107.767548,102.914513 
	C97.294212,100.722916 88.309731,106.343643 78.668983,108.414551 
	C77.350090,108.697861 76.336227,110.401199 75.181137,111.447067 
	C76.227722,112.588882 77.223694,113.782829 78.333107,114.859924 
	C79.882561,116.364258 81.865753,117.547073 83.035080,119.289169 
	C84.920753,122.098450 86.605080,124.141212 90.151443,121.624504 
	C90.881042,121.106728 92.041763,121.196457 93.003029,121.432610 
	C92.991508,123.562874 92.980721,125.266701 92.570358,126.993195 
	C91.116325,128.392303 89.167526,129.772903 89.173904,131.144409 
	C89.193588,135.379044 90.123940,139.600998 90.360748,143.846848 
	C90.468414,145.777328 90.362083,149.023102 89.347710,149.490402 
	C84.590332,151.681961 79.547821,153.402878 74.440063,154.544220 
	C73.555580,154.741837 72.016792,151.188019 70.489922,149.656387 
	C69.634956,148.798782 68.183754,148.535583 67.000107,147.535614 
	C66.663857,136.278366 66.416817,125.485641 65.877831,114.707535 
	C65.813202,113.415161 64.163231,112.202065 63.248062,110.952225 
z"/>
<path fill="#688BD8" opacity="1.000000" stroke="none" 
	d="
M193.266098,175.989487 
	C195.242325,179.618851 191.874039,181.408569 190.202957,183.170563 
	C183.903168,189.813126 175.421326,192.073181 166.705978,192.757202 
	C156.974823,193.520920 147.178238,193.562881 137.407257,193.680084 
	C124.370224,193.836472 111.286598,194.413818 98.308464,193.540314 
	C90.678352,193.026764 82.924866,190.792526 75.747635,187.995804 
	C66.601624,184.431870 62.739685,176.664856 62.915993,166.916626 
	C62.946117,165.251099 62.942059,163.584946 63.378426,161.640625 
	C64.206520,165.579437 64.609985,169.796692 65.093155,174.283813 
	C65.688614,175.084564 66.204369,175.615463 66.808823,176.485748 
	C70.637947,179.259171 74.091537,182.737549 78.191200,183.863480 
	C83.342987,185.278351 89.022614,185.021423 94.476326,185.044403 
	C121.223473,185.157166 147.971359,185.155533 174.718491,185.058456 
	C176.267517,185.052841 177.812210,183.851227 179.666382,183.183395 
	C180.943787,182.890259 181.913696,182.619919 183.140411,182.542542 
	C184.367569,182.214508 185.337921,181.693512 186.594193,181.014557 
	C189.008774,179.234238 191.137436,177.611862 193.266098,175.989487 
z"/>
<path fill="#C1CCE4" opacity="1.000000" stroke="none" 
	d="
M182.883606,182.349579 
	C181.913696,182.619919 180.943787,182.890259 179.163910,183.117371 
	C157.782486,182.717102 137.211487,182.331192 116.639366,182.019363 
	C109.827026,181.916092 103.011780,182.017044 96.197914,182.000519 
	C86.311798,181.976532 76.137505,183.347488 67.696175,176.187057 
	C67.500267,176.020889 67.051132,176.153259 66.720116,176.146362 
	C66.204369,175.615463 65.688614,175.084564 65.395020,174.092682 
	C66.078728,172.084747 66.540283,170.537796 67.367538,169.045227 
	C75.330849,170.198303 80.288254,178.827454 89.212090,176.687454 
	C89.499962,173.069000 89.963051,169.591141 95.041779,172.368469 
	C96.935059,178.320801 101.587700,175.213074 105.414085,175.970459 
	C109.890526,175.651749 113.939201,175.325653 118.241402,174.794830 
	C119.663887,173.725372 120.832840,172.860672 122.117020,172.195023 
	C122.424034,172.642776 122.664291,172.828903 122.985260,173.343933 
	C124.692390,174.511307 126.367302,175.287231 128.059311,176.466949 
	C129.498169,177.580139 130.863983,178.731842 132.351669,178.920044 
	C137.892029,179.620880 143.471954,180.010620 149.038315,180.502548 
	C149.839325,180.573334 150.648010,180.600449 151.452072,180.586472 
	C157.073624,180.488770 162.739868,179.886520 168.304016,180.399002 
	C174.271317,180.948608 179.950760,182.270630 184.888718,177.200439 
	C186.745544,175.293869 189.605087,174.363846 192.046204,173.290924 
	C192.420441,174.077148 192.755981,174.561066 193.091522,175.044998 
	C193.091522,175.044998 193.051559,175.540039 193.158829,175.764771 
	C191.137436,177.611862 189.008774,179.234238 186.198181,180.962311 
	C184.638702,181.495209 183.761154,181.922394 182.883606,182.349579 
z"/>
<path fill="#DDD7E0" opacity="1.000000" stroke="none" 
	d="
M111.008881,101.006897 
	C98.907547,101.004501 86.805679,101.062721 74.705261,100.956192 
	C71.757698,100.930244 68.814888,100.363091 65.216331,100.117218 
	C64.137390,100.440140 63.712017,100.690605 63.286644,100.941086 
	C63.234413,100.496094 63.182178,100.051094 63.485916,99.145889 
	C64.630661,98.293587 65.419441,97.901497 66.548065,97.568443 
	C67.578873,97.632034 68.269829,97.636589 69.406601,97.778503 
	C73.579628,97.857773 77.306847,97.799683 81.395767,97.766319 
	C82.481796,97.772446 83.206116,97.753845 84.217621,97.800720 
	C84.692055,97.807030 84.879295,97.747856 85.529999,97.711342 
	C117.297615,97.561073 148.601776,97.388145 180.249451,97.411903 
	C183.727585,97.447906 186.862183,97.287216 190.371201,97.133835 
	C191.490250,97.068253 192.234879,96.995361 193.323334,96.988899 
	C194.365463,97.051010 195.063782,97.046700 195.762100,97.042381 
	C195.836807,97.793320 195.911530,98.544258 195.553192,99.659653 
	C194.420349,100.024124 193.720566,100.024147 192.596741,100.031906 
	C189.064041,100.359543 185.957596,100.927971 182.846375,100.955490 
	C170.662979,101.063240 158.478073,100.999535 146.293732,101.000809 
	C134.532120,101.002029 122.770500,101.004799 111.008881,101.006897 
z"/>
<path fill="#C5879C" opacity="1.000000" stroke="none" 
	d="
M83.020821,68.217560 
	C114.366753,68.172966 145.712692,68.128365 177.637115,68.489380 
	C181.844772,69.913887 185.473923,70.932785 189.103073,71.951675 
	C193.445618,74.422585 195.320084,78.412849 195.805695,83.789543 
	C195.022263,84.690979 194.425674,84.945953 193.622711,84.939529 
	C193.238037,83.820564 193.059723,82.962997 192.883224,81.742897 
	C191.233185,79.610390 189.581360,77.840431 187.712616,76.035019 
	C187.495712,75.999573 187.061447,75.931503 186.992950,75.576385 
	C183.626068,70.522987 178.418045,71.158783 173.850677,71.125916 
	C145.275757,70.920250 116.698631,71.038063 88.122414,70.971634 
	C86.047119,70.966812 83.973228,70.352051 82.130394,69.865677 
	C82.581673,69.212852 82.801247,68.715202 83.020821,68.217560 
z"/>
<path fill="#C9D3F0" opacity="1.000000" stroke="none" 
	d="
M67.001831,168.990860 
	C66.540283,170.537796 66.078728,172.084747 65.315308,173.822815 
	C64.609985,169.796692 64.206520,165.579437 63.478226,161.189545 
	C63.127640,144.639893 63.101894,128.262878 63.162109,111.419052 
	C64.163231,112.202065 65.813202,113.415161 65.877831,114.707535 
	C66.416817,125.485641 66.663857,136.278366 66.998734,148.003601 
	C66.999588,155.623993 67.000710,162.307419 67.001831,168.990860 
z"/>
<path fill="#DFEEFC" opacity="1.000000" stroke="none" 
	d="
M193.020782,100.024170 
	C193.720566,100.024147 194.420349,100.024124 195.470016,100.029213 
	C195.869171,119.708397 195.918427,139.382477 195.543274,159.523376 
	C194.414001,159.993668 193.709137,159.997147 193.003845,159.534439 
	C192.997574,154.380264 192.991714,149.692276 192.991013,144.535141 
	C192.991302,130.376678 192.986420,116.687347 192.986389,102.626007 
	C193.001083,101.510719 193.010941,100.767441 193.020782,100.024170 
z"/>
<path fill="#B9768D" opacity="1.000000" stroke="none" 
	d="
M82.609070,68.132797 
	C82.801247,68.715202 82.581673,69.212852 81.824875,69.867279 
	C80.877655,70.019753 80.467659,70.015434 79.718796,70.013000 
	C78.244926,70.433685 77.109947,70.852486 75.974960,71.271294 
	C76.300674,71.516121 76.626389,71.760948 76.959427,72.262619 
	C76.972641,72.690666 76.978516,72.861870 76.629791,73.047691 
	C74.809341,74.352913 73.343491,75.643509 71.559326,76.995224 
	C70.480530,77.780212 69.720047,78.504082 68.790085,79.282379 
	C68.402672,79.474220 68.288780,79.671730 68.210464,79.949631 
	C68.141991,79.969948 68.003021,80.002975 67.771332,80.175476 
	C67.355484,80.881386 67.171326,81.414795 66.972855,82.318649 
	C66.635803,84.121086 66.313065,85.553085 65.969772,87.319641 
	C65.965378,88.100327 65.981537,88.546432 65.969376,89.419632 
	C65.987556,91.554283 66.034050,93.261856 66.057327,95.288055 
	C66.092140,96.240929 66.150177,96.875168 66.208214,97.509407 
	C65.419441,97.901497 64.630661,98.293587 63.537830,98.811844 
	C63.167080,93.946144 62.786251,88.934296 63.101967,83.966721 
	C63.680527,74.863586 70.279167,68.981285 82.609070,68.132797 
z"/>
<path fill="#D97C7C" opacity="1.000000" stroke="none" 
	d="
M193.829102,85.200920 
	C194.425674,84.945953 195.022263,84.690979 195.825500,84.181122 
	C196.058884,88.042572 196.085602,92.158920 195.937195,96.658829 
	C195.063782,97.046700 194.365463,97.051010 193.316071,96.718674 
	C192.942352,96.203133 192.919739,96.024261 192.933685,95.426941 
	C192.949478,93.011665 192.928711,91.014847 192.960541,88.687851 
	C193.285126,87.305420 193.557114,86.253174 193.829102,85.200920 
z"/>
<path fill="#CCE1F8" opacity="1.000000" stroke="none" 
	d="
M193.004272,160.000610 
	C193.709137,159.997147 194.414001,159.993668 195.471283,159.985962 
	C195.143723,164.894592 194.463730,169.807495 193.437637,174.882690 
	C192.755981,174.561066 192.420441,174.077148 192.303345,173.009521 
	C192.679184,170.617630 192.836548,168.809418 192.995682,166.563660 
	C192.999725,164.084274 193.001999,162.042435 193.004272,160.000610 
z"/>
<path fill="#B9768D" opacity="1.000000" stroke="none" 
	d="
M188.949463,71.616798 
	C185.473923,70.932785 181.844772,69.913887 178.100586,68.555740 
	C181.588974,69.238304 185.192413,70.260109 188.949463,71.616798 
z"/>
<path fill="#C9D3F0" opacity="1.000000" stroke="none" 
	d="
M63.186661,101.382378 
	C63.712017,100.690605 64.137390,100.440140 64.796333,100.107559 
	C64.667175,102.937653 64.304451,105.849854 63.586483,108.900436 
	C63.183052,106.633759 63.134869,104.228722 63.186661,101.382378 
z"/>
<path fill="#CFD8E7" opacity="1.000000" stroke="none" 
	d="
M67.367538,169.045227 
	C67.000710,162.307419 66.999588,155.623993 66.999832,148.472549 
	C68.183754,148.535583 69.634956,148.798782 70.489922,149.656387 
	C72.016792,151.188019 73.555580,154.741837 74.440063,154.544220 
	C79.547821,153.402878 84.590332,151.681961 89.347710,149.490402 
	C90.362083,149.023102 90.468414,145.777328 90.360748,143.846848 
	C90.123940,139.600998 89.193588,135.379044 89.173904,131.144409 
	C89.167526,129.772903 91.116325,128.392303 92.587509,127.009964 
	C93.004227,127.004066 93.037605,127.036858 93.030807,127.477982 
	C93.020996,129.585159 92.922829,131.257431 93.031631,132.916138 
	C93.473526,139.652390 100.472496,146.476318 106.221062,144.727798 
	C110.033653,143.568115 113.442924,140.423035 116.480705,137.577423 
	C119.062897,135.158585 120.855286,131.896576 123.147011,129.338226 
	C123.130859,131.333176 123.073601,133.018234 122.762375,134.654968 
	C122.536613,135.842285 121.897293,136.944672 121.577522,138.121628 
	C120.761299,141.125870 120.106529,144.176193 119.219742,147.158295 
	C118.627609,149.149521 117.748329,151.055344 116.529190,153.001617 
	C109.131882,153.003448 102.199188,152.878922 95.276611,153.088562 
	C93.511093,153.142044 91.777657,154.254898 89.816261,155.033325 
	C89.472458,155.496094 89.341873,155.806580 89.118118,156.092392 
	C89.024940,156.067734 88.854866,155.977264 88.657394,156.185303 
	C88.578568,157.244904 88.697220,158.096497 88.946205,159.208130 
	C89.376991,159.705582 89.677452,159.942978 90.214096,160.488678 
	C92.165047,161.196411 93.873947,161.908325 95.595627,161.940689 
	C102.726891,162.074707 109.862022,162.003296 116.996964,162.427277 
	C117.012772,165.619553 116.471130,168.607193 120.550743,169.288208 
	C121.167892,169.391220 121.524612,171.054428 122.001801,171.995956 
	C120.832840,172.860672 119.663887,173.725372 118.168411,174.449585 
	C114.584694,170.057953 110.190407,171.579346 105.778503,172.091339 
	C105.351036,172.490875 105.162010,172.778824 104.956024,173.265442 
	C104.939056,173.464127 104.946426,173.862854 104.635643,173.878937 
	C103.909988,173.916718 103.495117,173.938400 103.065025,173.968353 
	C103.049805,173.976593 103.038719,173.969742 103.045906,173.722687 
	C103.053093,173.475632 103.025398,172.982117 102.988892,172.724854 
	C101.300911,172.313812 99.649422,172.160004 97.621040,171.997482 
	C96.489487,171.988007 95.734840,171.987244 94.980186,171.986481 
	C89.963051,169.591141 89.499962,173.069000 89.212090,176.687454 
	C80.288254,178.827454 75.330849,170.198303 67.367538,169.045227 
z"/>
<path fill="#E0E3E7" opacity="1.000000" stroke="none" 
	d="
M192.596741,100.031906 
	C193.010941,100.767441 193.001083,101.510719 192.578033,102.626633 
	C189.740097,103.239433 186.618988,102.048187 185.616730,105.942688 
	C179.797836,105.200745 174.299866,103.634674 168.938095,104.010666 
	C157.461533,104.815437 146.052429,106.600960 134.623749,108.048302 
	C132.998489,108.254135 131.396347,108.743790 129.822128,109.227669 
	C127.498520,109.941879 126.929146,111.176910 127.765137,113.735428 
	C129.174255,118.048004 129.954971,122.565910 130.752869,127.247940 
	C129.374298,131.481094 131.521469,132.786224 135.000916,133.336334 
	C135.000214,134.114044 134.999817,134.558472 134.609741,135.001404 
	C132.435425,133.676514 130.119278,132.690659 129.007385,130.939957 
	C127.758461,128.973511 127.618912,126.310150 126.956009,123.961464 
	C126.386383,121.943245 125.957993,119.656700 122.706177,121.013763 
	C122.218300,120.681503 122.036568,120.411591 121.953117,119.693512 
	C120.869637,118.578667 119.780067,117.849899 118.352615,117.024559 
	C113.783897,114.588730 109.513794,112.668663 104.447433,115.766708 
	C103.442406,115.977287 102.770813,116.109169 101.905167,115.982086 
	C100.860710,116.570023 100.010292,117.416916 99.033096,118.502823 
	C98.366142,119.209496 97.825966,119.677162 97.024979,120.213463 
	C96.548004,120.557930 96.331848,120.833755 96.158791,121.140800 
	C96.201897,121.172020 96.209824,121.278175 95.813721,121.203178 
	C94.612999,121.087517 93.808388,121.046844 93.003769,121.006165 
	C92.041763,121.196457 90.881042,121.106728 90.151443,121.624504 
	C86.605080,124.141212 84.920753,122.098450 83.035080,119.289169 
	C81.865753,117.547073 79.882561,116.364258 78.333107,114.859924 
	C77.223694,113.782829 76.227722,112.588882 75.181137,111.447067 
	C76.336227,110.401199 77.350090,108.697861 78.668983,108.414551 
	C88.309731,106.343643 97.294212,100.722916 107.767548,102.914513 
	C108.649734,103.099113 109.763397,102.177483 110.889206,101.388344 
	C122.770500,101.004799 134.532120,101.002029 146.293732,101.000809 
	C158.478073,100.999535 170.662979,101.063240 182.846375,100.955490 
	C185.957596,100.927971 189.064041,100.359543 192.596741,100.031906 
z"/>
<path fill="#CFD8E7" opacity="1.000000" stroke="none" 
	d="
M93.003029,121.432617 
	C93.808388,121.046844 94.612999,121.087517 95.766525,121.497208 
	C95.758125,122.583023 95.400810,123.299820 94.819336,124.216644 
	C94.543167,124.803253 94.491165,125.189850 94.492485,125.808922 
	C94.546967,126.359749 94.527100,126.676781 94.123856,126.997040 
	C93.520203,127.013351 93.278900,127.025101 93.037605,127.036858 
	C93.037605,127.036858 93.004227,127.004066 92.987083,126.987289 
	C92.980721,125.266701 92.991508,123.562874 93.003029,121.432617 
z"/>
<path fill="#AEC6E6" opacity="1.000000" stroke="none" 
	d="
M66.808823,176.485748 
	C67.051132,176.153259 67.500267,176.020889 67.696175,176.187057 
	C76.137505,183.347488 86.311798,181.976532 96.197914,182.000519 
	C103.011780,182.017044 109.827026,181.916092 116.639366,182.019363 
	C137.211487,182.331192 157.782486,182.717102 178.856415,183.140167 
	C177.812210,183.851227 176.267517,185.052841 174.718491,185.058456 
	C147.971359,185.155533 121.223473,185.157166 94.476326,185.044403 
	C89.022614,185.021423 83.342987,185.278351 78.191200,183.863480 
	C74.091537,182.737549 70.637947,179.259171 66.808823,176.485748 
z"/>
<path fill="#AEC6E6" opacity="1.000000" stroke="none" 
	d="
M183.140411,182.542542 
	C183.761154,181.922394 184.638702,181.495209 185.912262,181.120270 
	C185.337921,181.693512 184.367569,182.214508 183.140411,182.542542 
z"/>
<path fill="#D3DEE9" opacity="1.000000" stroke="none" 
	d="
M122.920128,121.138199 
	C125.957993,119.656700 126.386383,121.943245 126.956009,123.961464 
	C127.618912,126.310150 127.758461,128.973511 129.007385,130.939957 
	C130.119278,132.690659 132.435425,133.676514 134.925842,135.271133 
	C136.429535,135.693390 137.223251,135.946487 138.026093,135.979843 
	C146.703674,136.340408 155.387009,136.590485 164.056870,137.080856 
	C165.413849,137.157593 166.711472,138.284073 167.565018,138.908066 
	C157.133942,138.851974 147.174408,138.806686 137.214813,138.777969 
	C134.437683,138.769958 131.833298,138.945297 134.491714,143.003357 
	C145.624023,143.087631 156.312164,143.014633 167.335754,142.783997 
	C167.805817,141.405426 167.940460,140.184509 168.423645,139.067230 
	C169.171021,139.845108 169.841202,140.487564 169.924500,141.198746 
	C170.448425,145.671417 172.083801,147.534409 177.190079,146.343491 
	C182.282455,145.155823 187.706970,145.392212 192.985855,145.004272 
	C192.991714,149.692276 192.997574,154.380264 193.003845,159.534439 
	C193.001999,162.042435 192.999725,164.084274 192.599701,166.564835 
	C187.671646,168.246719 182.772110,168.787766 178.711212,170.923431 
	C174.338821,173.222931 170.380798,173.315094 165.693787,172.018478 
	C162.634323,172.048203 159.849991,171.791168 157.145691,172.145279 
	C154.571808,172.482315 150.692932,170.000641 149.536758,174.975021 
	C147.124130,174.313934 145.061661,173.657745 142.772354,172.829407 
	C142.032516,172.104889 141.519547,171.552490 140.756134,170.988419 
	C140.338593,170.974716 140.171478,170.972672 139.905701,170.620773 
	C137.640045,168.536224 135.594818,167.841675 133.771957,171.122284 
	C132.954361,171.663849 132.361816,172.344604 131.765060,172.348312 
	C129.829453,172.360352 127.892296,172.124207 125.723404,171.987579 
	C125.491058,171.991516 125.026314,171.992447 124.842194,171.788132 
	C124.089729,172.040024 123.521378,172.496246 122.953026,172.952454 
	C122.664291,172.828903 122.424034,172.642776 122.117020,172.195023 
	C121.524612,171.054428 121.167892,169.391220 120.550743,169.288208 
	C116.471130,168.607193 117.012772,165.619553 117.466095,162.423187 
	C126.219147,161.997253 134.507050,162.107071 142.787231,161.903137 
	C144.532089,161.860168 146.248611,160.666473 148.140381,159.772766 
	C148.527069,159.027069 148.751541,158.511612 149.125946,157.912445 
	C149.335281,157.732422 149.467712,157.599075 149.441025,157.546463 
	C149.344391,157.355972 149.194336,157.192581 148.975037,156.744232 
	C148.578171,155.995483 148.270706,155.521469 147.710449,154.779236 
	C137.304306,154.007141 127.150932,153.503265 116.997559,152.999390 
	C117.748329,151.055344 118.627609,149.149521 119.219742,147.158295 
	C120.106529,144.176193 120.761299,141.125870 121.577522,138.121628 
	C121.897293,136.944672 122.536613,135.842285 122.762375,134.654968 
	C123.073601,133.018234 123.130859,131.333176 123.260033,129.074341 
	C123.180763,127.654076 123.138359,126.828285 123.124229,125.668167 
	C123.110046,124.890450 123.067589,124.447060 123.058716,123.645142 
	C123.034920,122.570473 122.977524,121.854332 122.920128,121.138199 
z"/>
<path fill="#CDD8E6" opacity="1.000000" stroke="none" 
	d="
M166.003891,171.998779 
	C170.380798,173.315094 174.338821,173.222931 178.711212,170.923431 
	C182.772110,168.787766 187.671646,168.246719 192.597931,167.002396 
	C192.836548,168.809418 192.679184,170.617630 192.264679,172.707230 
	C189.605087,174.363846 186.745544,175.293869 184.888718,177.200439 
	C179.950760,182.270630 174.271317,180.948608 168.304016,180.399002 
	C162.739868,179.886520 157.073624,180.488770 151.452072,180.586472 
	C150.648010,180.600449 149.839325,180.573334 149.038315,180.502548 
	C143.471954,180.010620 137.892029,179.620880 132.351669,178.920044 
	C130.863983,178.731842 129.498169,177.580139 128.467850,176.449829 
	C133.001404,175.670853 137.143524,175.312775 141.560944,174.893509 
	C142.223907,174.222046 142.611557,173.611801 142.999207,173.001541 
	C145.061661,173.657745 147.124130,174.313934 149.757812,175.233551 
	C154.471924,175.620682 158.639481,176.034744 162.742126,175.685699 
	C163.925369,175.585052 164.921814,173.288559 166.003891,171.998779 
z"/>
<path fill="#BAC2DB" opacity="1.000000" stroke="none" 
	d="
M141.285645,174.954712 
	C137.143524,175.312775 133.001404,175.670853 128.450745,176.046021 
	C126.367302,175.287231 124.692390,174.511307 122.985260,173.343933 
	C123.521378,172.496246 124.089729,172.040024 124.928040,171.935089 
	C125.450584,172.185471 125.703163,172.084549 125.955742,171.983643 
	C127.892296,172.124207 129.829453,172.360352 131.765060,172.348312 
	C132.361816,172.344604 132.954361,171.663849 134.083725,171.262970 
	C136.413849,171.145447 138.209106,171.058044 140.004349,170.970642 
	C140.171478,170.972672 140.338593,170.974716 140.761444,171.387177 
	C141.106659,172.849960 141.196152,173.902344 141.285645,174.954712 
z"/>
<path fill="#B7C2DA" opacity="1.000000" stroke="none" 
	d="
M106.016945,171.979767 
	C110.190407,171.579346 114.584694,170.057953 117.914871,174.654327 
	C113.939201,175.325653 109.890526,175.651749 105.416138,175.621765 
	C104.975746,174.798065 104.961082,174.330460 104.946426,173.862854 
	C104.946426,173.862854 104.939056,173.464127 105.169586,173.124008 
	C105.605728,172.515854 105.811340,172.247803 106.016945,171.979767 
z"/>
<path fill="#B3BDD5" opacity="1.000000" stroke="none" 
	d="
M104.635643,173.878937 
	C104.961082,174.330460 104.975746,174.798065 104.988358,175.614380 
	C101.587700,175.213074 96.935059,178.320801 95.041779,172.368469 
	C95.734840,171.987244 96.489487,171.988007 97.624863,172.302673 
	C99.697144,173.064423 101.388695,173.512268 103.080246,173.960114 
	C103.495117,173.938400 103.909988,173.916718 104.635643,173.878937 
z"/>
<path fill="#B14448" opacity="1.000000" stroke="none" 
	d="
M192.897110,95.845398 
	C192.919739,96.024261 192.942352,96.203133 192.972260,96.652237 
	C192.234879,96.995361 191.490250,97.068253 189.925842,97.043144 
	C186.039368,97.035172 182.972656,97.125191 179.905945,97.215210 
	C148.601776,97.388145 117.297615,97.561073 85.408798,97.587662 
	C84.526245,97.539291 84.228340,97.637268 83.930435,97.735245 
	C83.206116,97.753845 82.481796,97.772446 81.053024,97.557655 
	C76.552650,97.429886 72.756721,97.535515 68.960793,97.641144 
	C68.269829,97.636589 67.578873,97.632034 66.548065,97.568443 
	C66.150177,96.875168 66.092140,96.240929 66.469818,95.314018 
	C69.698792,95.338425 72.490402,95.911484 75.285591,95.929527 
	C89.541916,96.021530 103.799164,95.978630 118.056076,95.966888 
	C140.039093,95.948784 162.022095,95.917625 184.452255,95.919861 
	C187.565308,95.913612 190.231201,95.879501 192.897110,95.845398 
z"/>
<path fill="#B9768D" opacity="1.000000" stroke="none" 
	d="
M69.406601,97.778503 
	C72.756721,97.535515 76.552650,97.429886 80.691322,97.532921 
	C77.306847,97.799683 73.579628,97.857773 69.406601,97.778503 
z"/>
<path fill="#B9768D" opacity="1.000000" stroke="none" 
	d="
M180.249451,97.411903 
	C182.972656,97.125191 186.039368,97.035172 189.551437,97.035843 
	C186.862183,97.287216 183.727585,97.447906 180.249451,97.411903 
z"/>
<path fill="#B9768D" opacity="1.000000" stroke="none" 
	d="
M84.217621,97.800720 
	C84.228340,97.637268 84.526245,97.539291 84.945343,97.565002 
	C84.879295,97.747856 84.692055,97.807030 84.217621,97.800720 
z"/>
<path fill="#E46A56" opacity="1.000000" stroke="none" 
	d="
M193.622711,84.939529 
	C193.557114,86.253174 193.285126,87.305420 192.619965,88.626175 
	C191.303116,87.657532 190.339401,86.447960 189.463882,85.177589 
	C187.510712,82.343529 183.884308,81.328888 181.660904,83.003304 
	C180.870834,82.284866 180.359680,81.679314 180.075500,80.825089 
	C179.024628,80.050941 177.764999,79.131462 176.465683,79.071472 
	C171.983902,78.864555 167.473022,79.189682 163.000595,78.895798 
	C144.513702,77.681038 126.053780,75.781639 107.550255,75.193420 
	C95.689819,74.816376 83.770546,76.290062 71.877647,76.934105 
	C73.343491,75.643509 74.809341,74.352913 76.915871,73.298103 
	C80.817886,73.355934 84.079002,73.028534 87.340599,73.023773 
	C112.408180,72.987190 137.479340,72.779678 162.541519,73.153267 
	C170.726822,73.275269 178.888794,74.960953 187.061447,75.931503 
	C187.061447,75.931503 187.495712,75.999573 187.775162,76.372986 
	C189.663544,78.532745 191.272476,80.319092 192.881409,82.105438 
	C193.059723,82.962997 193.238037,83.820564 193.622711,84.939529 
z"/>
<path fill="#D97C7C" opacity="1.000000" stroke="none" 
	d="
M186.992950,75.576385 
	C178.888794,74.960953 170.726822,73.275269 162.541519,73.153267 
	C137.479340,72.779678 112.408180,72.987190 87.340599,73.023773 
	C84.079002,73.028534 80.817886,73.355934 77.270477,73.283478 
	C76.978516,72.861870 76.972641,72.690666 77.283432,72.221527 
	C78.419289,71.286095 79.238480,70.648605 80.057671,70.011116 
	C80.467659,70.015434 80.877655,70.019753 81.593170,70.022469 
	C83.973228,70.352051 86.047119,70.966812 88.122414,70.971634 
	C116.698631,71.038063 145.275757,70.920250 173.850677,71.125916 
	C178.418045,71.158783 183.626068,70.522987 186.992950,75.576385 
z"/>
<path fill="#D97C7C" opacity="1.000000" stroke="none" 
	d="
M192.883209,81.742897 
	C191.272476,80.319092 189.663544,78.532745 187.992065,76.408432 
	C189.581360,77.840431 191.233185,79.610390 192.883209,81.742897 
z"/>
<path fill="#DFE4E9" opacity="1.000000" stroke="none" 
	d="
M168.036530,138.925156 
	C166.711472,138.284073 165.413849,137.157593 164.056870,137.080856 
	C155.387009,136.590485 146.703674,136.340408 138.026093,135.979843 
	C137.223251,135.946487 136.429535,135.693390 135.315506,135.272614 
	C134.999817,134.558472 135.000214,134.114044 135.433289,133.335632 
	C138.910233,132.667542 141.954514,132.333466 145.415314,131.999634 
	C147.220276,131.999100 148.608688,131.998337 150.421600,131.998367 
	C155.108917,132.238739 158.776764,131.768860 158.174316,125.685730 
	C159.556396,124.607651 160.911789,123.027893 161.947159,123.215393 
	C167.359833,124.195572 172.746231,125.436569 178.025894,126.982613 
	C180.379654,127.671844 182.338394,128.877960 183.827972,125.846062 
	C185.973175,121.479683 188.314484,117.205040 190.307144,112.772148 
	C190.712524,111.870308 190.275391,110.202927 189.636902,109.310295 
	C188.704163,108.006332 187.238113,107.083862 185.999390,105.998779 
	C186.618988,102.048187 189.740097,103.239433 192.573181,102.998642 
	C192.986420,116.687347 192.991302,130.376678 192.991013,144.535141 
	C187.706970,145.392212 182.282455,145.155823 177.190079,146.343491 
	C172.083801,147.534409 170.448425,145.671417 169.924500,141.198746 
	C169.841202,140.487564 169.171021,139.845108 168.388153,139.083557 
	C168.004120,138.996246 168.036530,138.925156 168.036530,138.925156 
z"/>
<path fill="#DA4C45" opacity="1.000000" stroke="none" 
	d="
M184.005112,95.892006 
	C162.022095,95.917625 140.039093,95.948784 118.056076,95.966888 
	C103.799164,95.978630 89.541916,96.021530 75.285591,95.929527 
	C72.490402,95.911484 69.698792,95.338425 66.493042,94.995392 
	C66.034050,93.261856 65.987556,91.554283 66.280701,89.365891 
	C67.077789,88.256920 67.535233,87.628769 67.996185,87.000153 
	C67.999695,86.999695 68.001106,86.992676 68.416809,86.979736 
	C73.816284,85.405228 79.934532,87.252647 83.739075,82.378677 
	C82.557625,85.678673 83.736473,87.076538 86.718323,86.915718 
	C88.449623,86.822342 90.155495,86.257523 92.294716,85.943787 
	C96.812622,86.658173 100.908615,87.333611 105.076920,88.353401 
	C106.758400,89.750771 108.347198,91.676056 109.980095,91.714211 
	C120.030190,91.948990 130.095383,91.890800 140.139053,91.503143 
	C141.147446,91.464226 142.045639,88.569733 143.227493,87.000809 
	C143.460022,87.001122 143.925079,87.002182 144.006317,87.378418 
	C144.724869,91.012489 147.076813,91.165039 149.745163,91.022560 
	C153.677780,90.812584 154.419037,87.994217 155.324524,84.964417 
	C156.117798,84.970367 156.571167,84.967361 157.075378,85.339760 
	C159.240417,91.987633 160.236801,92.289307 168.540833,89.037895 
	C170.279022,89.031395 171.616226,89.036736 172.969727,89.276443 
	C172.986038,89.510818 173.012772,89.979935 173.313202,90.249619 
	C175.220673,90.679359 176.845520,91.073135 178.431198,90.952400 
	C182.107376,90.672493 184.048325,92.097946 184.005112,95.892006 
z"/>
<path fill="#E05E4C" opacity="1.000000" stroke="none" 
	d="
M105.004616,88.009048 
	C100.908615,87.333611 96.812622,86.658173 92.353531,85.606873 
	C91.603615,83.799545 91.604813,81.487175 90.752754,81.111855 
	C88.698303,80.206886 86.244812,80.207840 83.698769,79.595276 
	C76.752571,76.496231 69.896477,79.890305 68.001106,86.992676 
	C68.001106,86.992676 67.999695,86.999695 67.662605,86.999268 
	C66.880447,86.994255 66.435387,86.989662 65.990326,86.985077 
	C66.313065,85.553085 66.635803,84.121086 67.205940,82.148621 
	C67.636566,81.073082 67.819794,80.538033 68.003021,80.002975 
	C68.003021,80.002975 68.141991,79.969948 68.335564,79.847549 
	C68.691673,79.575920 68.835144,79.410187 68.959564,79.227959 
	C69.720047,78.504082 70.480530,77.780212 71.559326,76.995224 
	C83.770546,76.290062 95.689819,74.816376 107.550255,75.193420 
	C126.053780,75.781639 144.513702,77.681038 163.000595,78.895798 
	C167.473022,79.189682 171.983902,78.864555 176.465683,79.071472 
	C177.764999,79.131462 179.024628,80.050941 179.712250,80.805954 
	C177.752121,81.367134 176.382187,81.698761 174.833084,81.824356 
	C174.080933,82.063789 173.507950,82.509254 172.635147,83.108261 
	C170.624130,83.171135 168.912949,83.080467 166.928864,82.673706 
	C164.127792,82.250031 161.599594,82.142448 158.818314,82.200272 
	C158.051651,83.231903 157.538086,84.098137 157.024521,84.964363 
	C156.571167,84.967361 156.117798,84.970367 155.281738,84.654884 
	C154.286530,83.531303 153.674057,82.726212 152.849487,81.620117 
	C149.575790,79.548279 146.665909,78.464890 144.937561,83.253403 
	C144.838348,83.666786 144.798920,83.832199 144.561020,84.245972 
	C144.255844,85.327393 144.149155,86.160439 144.013123,86.995773 
	C143.983780,86.998055 143.925079,87.002182 143.925079,87.002182 
	C143.925079,87.002182 143.460022,87.001122 143.080963,86.667557 
	C141.748169,84.239227 142.065491,81.359650 138.300079,81.347572 
	C133.052567,81.330734 127.786751,80.265869 122.567253,80.501671 
	C118.727692,80.675125 114.061241,81.190079 111.429970,83.473488 
	C109.382317,85.250435 107.937714,87.506393 105.004616,88.009048 
M95.450684,80.489250 
	C95.450684,80.489250 95.517906,80.456337 95.450684,80.489250 
z"/>
<path fill="#C5879C" opacity="1.000000" stroke="none" 
	d="
M79.718796,70.013000 
	C79.238480,70.648605 78.419289,71.286095 77.276100,71.964676 
	C76.626389,71.760948 76.300674,71.516121 75.974960,71.271294 
	C77.109947,70.852486 78.244926,70.433685 79.718796,70.013000 
z"/>
<path fill="#E25447" opacity="1.000000" stroke="none" 
	d="
M65.969772,87.319641 
	C66.435387,86.989662 66.880447,86.994255 67.659096,86.999725 
	C67.535233,87.628769 67.077789,88.256920 66.309021,88.938812 
	C65.981537,88.546432 65.965378,88.100327 65.969772,87.319641 
z"/>
<path fill="#D97C7C" opacity="1.000000" stroke="none" 
	d="
M67.771332,80.175476 
	C67.819794,80.538033 67.636566,81.073082 67.220261,81.778175 
	C67.171326,81.414795 67.355484,80.881386 67.771332,80.175476 
z"/>
<path fill="#E25447" opacity="1.000000" stroke="none" 
	d="
M68.790085,79.282379 
	C68.835144,79.410187 68.691673,79.575920 68.404037,79.827240 
	C68.288780,79.671730 68.402672,79.474220 68.790085,79.282379 
z"/>
<path fill="#DB5644" opacity="1.000000" stroke="none" 
	d="
M184.452255,95.919861 
	C184.048325,92.097946 182.107376,90.672493 178.431198,90.952400 
	C176.845520,91.073135 175.220673,90.679359 173.755524,90.254028 
	C176.548508,89.159325 180.152023,92.043983 181.969574,87.520645 
	C181.966965,85.785240 181.953384,84.450714 181.939819,83.116188 
	C183.884308,81.328888 187.510712,82.343529 189.463882,85.177589 
	C190.339401,86.447960 191.303116,87.657532 192.567383,88.956360 
	C192.928711,91.014847 192.949478,93.011665 192.933685,95.426941 
	C190.231201,95.879501 187.565308,95.913612 184.452255,95.919861 
z"/>
<path fill="#4C83C8" opacity="1.000000" stroke="none" 
	d="
M89.211296,156.117050 
	C89.341873,155.806580 89.472458,155.496094 90.277267,155.107666 
	C108.988007,155.160309 127.024521,155.290924 145.110565,155.732300 
	C145.942520,159.512436 143.324829,158.986725 141.507812,158.935394 
	C133.755386,158.716492 126.007149,158.102600 118.257439,158.103561 
	C110.507935,158.104538 102.757790,158.867340 95.009544,158.839890 
	C93.073601,158.833038 91.143883,157.071899 89.211296,156.117050 
z"/>
<path fill="#AEC6E6" opacity="1.000000" stroke="none" 
	d="
M123.095955,126.002502 
	C123.138359,126.828285 123.180763,127.654076 123.110138,128.743744 
	C120.855286,131.896576 119.062897,135.158585 116.480705,137.577423 
	C113.442924,140.423035 110.033653,143.568115 106.221062,144.727798 
	C100.472496,146.476318 93.473526,139.652390 93.031631,132.916138 
	C92.922829,131.257431 93.020996,129.585159 93.030807,127.477982 
	C93.278900,127.025101 93.520203,127.013351 94.249191,127.334282 
	C94.556305,132.922516 96.771538,137.143951 100.926041,140.075470 
	C102.442123,141.145264 105.728668,142.009186 106.680603,141.190857 
	C111.769119,136.816528 116.374687,131.880417 121.361206,127.019341 
	C121.840141,126.683426 122.006897,126.407379 122.329865,126.044304 
	C122.754837,126.011909 122.925392,126.007210 123.095955,126.002502 
z"/>
<path fill="#BFD8FA" opacity="1.000000" stroke="none" 
	d="
M147.978180,160.003006 
	C146.248611,160.666473 144.532089,161.860168 142.787231,161.903137 
	C134.507050,162.107071 126.219147,161.997253 117.464859,162.003250 
	C109.862022,162.003296 102.726891,162.074707 95.595627,161.940689 
	C93.873947,161.908325 92.165047,161.196411 90.681137,160.422607 
	C109.934074,160.033142 128.956131,160.018066 147.978180,160.003006 
z"/>
<path fill="#BFD8FA" opacity="1.000000" stroke="none" 
	d="
M145.061035,155.421539 
	C127.024521,155.290924 108.988007,155.160309 90.490486,154.955368 
	C91.777657,154.254898 93.511093,153.142044 95.276611,153.088562 
	C102.199188,152.878922 109.131882,153.003448 116.529190,153.001617 
	C127.150932,153.503265 137.304306,154.007141 147.348907,154.835388 
	C146.513763,155.246994 145.787399,155.334259 145.061035,155.421539 
z"/>
<path fill="#4173AD" opacity="1.000000" stroke="none" 
	d="
M145.110565,155.732300 
	C145.787399,155.334259 146.513763,155.246994 147.601685,155.103592 
	C148.270706,155.521469 148.578171,155.995483 148.900330,156.983704 
	C148.935349,157.663986 148.955673,157.830063 148.976013,157.996155 
	C148.751541,158.511612 148.527069,159.027069 148.140381,159.772766 
	C128.956131,160.018066 109.934074,160.033142 90.444969,160.114288 
	C89.677452,159.942978 89.376991,159.705582 89.008812,158.840118 
	C88.912346,157.467133 88.883606,156.722198 88.854866,155.977264 
	C88.854866,155.977264 89.024940,156.067734 89.118118,156.092392 
	C91.143883,157.071899 93.073601,158.833038 95.009544,158.839890 
	C102.757790,158.867340 110.507935,158.104538 118.257439,158.103561 
	C126.007149,158.102600 133.755386,158.716492 141.507812,158.935394 
	C143.324829,158.986725 145.942520,159.512436 145.110565,155.732300 
z"/>
<path fill="#B7C2DA" opacity="1.000000" stroke="none" 
	d="
M103.065025,173.968353 
	C101.388695,173.512268 99.697144,173.064423 98.001770,172.311386 
	C99.649422,172.160004 101.300911,172.313812 102.843567,172.824158 
	C102.836067,173.443710 102.937393,173.706726 103.038719,173.969742 
	C103.038719,173.969742 103.049805,173.976593 103.065025,173.968353 
z"/>
<path fill="#BFD8FA" opacity="1.000000" stroke="none" 
	d="
M88.657394,156.185303 
	C88.883606,156.722198 88.912346,157.467133 88.878487,158.580078 
	C88.697220,158.096497 88.578568,157.244904 88.657394,156.185303 
z"/>
<path fill="#B3BDD5" opacity="1.000000" stroke="none" 
	d="
M103.045906,173.722687 
	C102.937393,173.706726 102.836067,173.443710 102.880074,173.081406 
	C103.025398,172.982117 103.053093,173.475632 103.045906,173.722687 
z"/>
<path fill="#B3BDD5" opacity="1.000000" stroke="none" 
	d="
M105.778503,172.091339 
	C105.811340,172.247803 105.605728,172.515854 105.186554,172.925323 
	C105.162010,172.778824 105.351036,172.490875 105.778503,172.091339 
z"/>
<path fill="#E8E5E5" opacity="1.000000" stroke="none" 
	d="
M149.997116,131.997559 
	C148.608688,131.998337 147.220276,131.999100 145.416046,131.651306 
	C145.002609,130.606033 145.004990,129.909332 145.385803,129.139862 
	C146.973694,128.131363 148.183182,127.195641 149.635071,126.161926 
	C150.256393,125.711357 150.635315,125.358772 151.371155,124.978912 
	C156.319046,121.956444 162.203629,120.913528 165.987000,116.699539 
	C165.808075,116.286560 165.629150,115.873573 165.450226,115.460594 
	C159.580154,115.460594 153.710083,115.460594 147.400146,115.347351 
	C130.965469,115.455482 133.209274,112.571098 133.061417,128.790436 
	C132.185608,128.115067 131.592804,127.556267 131.000000,126.997459 
	C129.954971,122.565910 129.174255,118.048004 127.765137,113.735428 
	C126.929146,111.176910 127.498520,109.941879 129.822128,109.227669 
	C131.396347,108.743790 132.998489,108.254135 134.623749,108.048302 
	C146.052429,106.600960 157.461533,104.815437 168.938095,104.010666 
	C174.299866,103.634674 179.797836,105.200745 185.616730,105.942688 
	C187.238113,107.083862 188.704163,108.006332 189.636902,109.310295 
	C190.275391,110.202927 190.712524,111.870308 190.307144,112.772148 
	C188.314484,117.205040 185.973175,121.479683 183.827972,125.846062 
	C182.338394,128.877960 180.379654,127.671844 178.025894,126.982613 
	C172.746231,125.436569 167.359833,124.195572 161.947159,123.215393 
	C160.911789,123.027893 159.556396,124.607651 157.851898,125.830719 
	C154.902466,128.192093 152.449783,130.094833 149.997116,131.997559 
z"/>
<path fill="#4EA5E2" opacity="1.000000" stroke="none" 
	d="
M122.706177,121.013763 
	C122.977524,121.854332 123.034920,122.570473 122.785431,123.671799 
	C122.296387,124.073906 122.114212,124.090813 121.568169,124.016449 
	C118.856064,124.118484 116.503654,124.272034 114.160927,124.517776 
	C112.315254,124.711380 109.480614,125.898476 108.806252,125.131371 
	C104.687851,120.446602 100.906548,123.157265 96.701935,125.044838 
	C96.052261,125.055092 95.681084,125.065735 95.231415,124.814423 
	C95.116447,124.373856 95.079979,124.195236 95.043503,124.016617 
	C95.400810,123.299820 95.758125,122.583023 96.162628,121.572205 
	C96.209824,121.278175 96.201897,121.172020 96.419571,121.077103 
	C96.853432,120.703064 97.069618,120.423943 97.285797,120.144821 
	C97.825966,119.677162 98.366142,119.209496 99.332382,118.434448 
	C100.538712,117.498390 101.318962,116.869720 102.099220,116.241058 
	C102.770813,116.109169 103.442406,115.977287 104.584152,116.080292 
	C105.707039,117.195633 106.359772,118.076096 107.138702,119.286858 
	C108.416740,121.190323 107.936111,125.170639 111.658569,123.011398 
	C113.739960,121.804070 115.401039,119.872139 117.498657,118.246140 
	C118.074150,118.186211 118.401443,118.139420 119.014862,118.224503 
	C120.183716,118.935738 121.065376,119.507660 121.947037,120.079590 
	C122.036568,120.411591 122.218300,120.681503 122.706177,121.013763 
z"/>
<path fill="#9C7CB2" opacity="1.000000" stroke="none" 
	d="
M118.727676,118.085197 
	C118.401443,118.139420 118.074150,118.186211 117.111313,118.197311 
	C113.322052,118.431557 110.167274,118.694054 107.012505,118.956558 
	C106.359772,118.076096 105.707039,117.195633 104.917587,116.001595 
	C109.513794,112.668663 113.783897,114.588730 118.389000,117.264511 
	C118.763268,117.601036 118.727676,118.085197 118.727676,118.085197 
z"/>
<path fill="#E2E1E5" opacity="1.000000" stroke="none" 
	d="
M145.007385,129.212631 
	C145.004990,129.909332 145.002609,130.606033 144.999512,131.651062 
	C141.954514,132.333466 138.910233,132.667542 135.433594,133.002350 
	C131.521469,132.786224 129.374298,131.481094 130.752869,127.247940 
	C131.592804,127.556267 132.185608,128.115067 133.360626,129.009567 
	C137.631027,129.301056 141.319199,129.256836 145.007385,129.212631 
z"/>
<path fill="#CFD8E7" opacity="1.000000" stroke="none" 
	d="
M101.905167,115.982086 
	C101.318962,116.869720 100.538712,117.498390 99.459167,118.195435 
	C100.010292,117.416916 100.860710,116.570023 101.905167,115.982086 
z"/>
<path fill="#D3DEE9" opacity="1.000000" stroke="none" 
	d="
M119.014862,118.224503 
	C118.727676,118.085197 118.763268,117.601036 118.726883,117.361084 
	C119.780067,117.849899 120.869637,118.578667 121.953117,119.693512 
	C121.065376,119.507660 120.183716,118.935738 119.014862,118.224503 
z"/>
<path fill="#CFD8E7" opacity="1.000000" stroke="none" 
	d="
M97.024986,120.213463 
	C97.069618,120.423943 96.853432,120.703064 96.376465,121.045883 
	C96.331848,120.833755 96.548004,120.557930 97.024986,120.213463 
z"/>
<path fill="#3988D1" opacity="1.000000" stroke="none" 
	d="
M95.309906,125.076370 
	C95.681084,125.065735 96.052261,125.055092 96.703300,125.458450 
	C95.619720,133.881393 102.656609,134.648376 106.726219,137.552414 
	C111.612892,133.906738 116.282677,130.422882 120.999893,126.990135 
	C121.047333,127.041237 121.147224,127.138535 121.147232,127.138535 
	C116.374687,131.880417 111.769119,136.816528 106.680603,141.190857 
	C105.728668,142.009186 102.442123,141.145264 100.926041,140.075470 
	C96.771538,137.143951 94.556305,132.922516 94.611549,127.329727 
	C94.527100,126.676781 94.546967,126.359749 94.716095,125.695602 
	C95.027557,125.258659 95.168732,125.167519 95.309906,125.076370 
z"/>
<path fill="#AEC6E6" opacity="1.000000" stroke="none" 
	d="
M95.231415,124.814423 
	C95.168732,125.167519 95.027557,125.258659 94.662766,125.463120 
	C94.491165,125.189850 94.543167,124.803253 94.819336,124.216644 
	C95.079979,124.195236 95.116447,124.373856 95.231415,124.814423 
z"/>
<path fill="#5388C9" opacity="1.000000" stroke="none" 
	d="
M168.039612,138.979919 
	C167.940460,140.184509 167.805817,141.405426 167.025574,142.504089 
	C159.648926,142.254608 152.917038,142.002182 146.187119,142.047028 
	C142.139008,142.074005 138.093979,142.564102 134.047562,142.846069 
	C131.833298,138.945297 134.437683,138.769958 137.214813,138.777969 
	C147.174408,138.806686 157.133942,138.851974 167.565018,138.908066 
	C168.036530,138.925156 168.004120,138.996246 168.039612,138.979919 
z"/>
<path fill="#B7C2DA" opacity="1.000000" stroke="none" 
	d="
M165.693787,172.018478 
	C164.921814,173.288559 163.925369,175.585052 162.742126,175.685699 
	C158.639481,176.034744 154.471924,175.620682 150.108002,175.238434 
	C150.692932,170.000641 154.571808,172.482315 157.145691,172.145279 
	C159.849991,171.791168 162.634323,172.048203 165.693787,172.018478 
M158.547577,174.514984 
	C158.547577,174.514984 158.475143,174.550262 158.547577,174.514984 
z"/>
<path fill="#3567A4" opacity="1.000000" stroke="none" 
	d="
M134.491714,143.003357 
	C138.093979,142.564102 142.139008,142.074005 146.187119,142.047028 
	C152.917038,142.002182 159.648926,142.254608 166.690155,142.661743 
	C156.312164,143.014633 145.624023,143.087631 134.491714,143.003357 
z"/>
<path fill="#CFD8E7" opacity="1.000000" stroke="none" 
	d="
M139.905701,170.620773 
	C138.209106,171.058044 136.413849,171.145447 134.306839,171.092163 
	C135.594818,167.841675 137.640045,168.536224 139.905701,170.620773 
z"/>
<path fill="#CFD8E7" opacity="1.000000" stroke="none" 
	d="
M141.560944,174.893509 
	C141.196152,173.902344 141.106659,172.849960 141.011871,171.398834 
	C141.519547,171.552490 142.032516,172.104889 142.772354,172.829407 
	C142.611557,173.611801 142.223907,174.222046 141.560944,174.893509 
z"/>
<path fill="#3988D1" opacity="1.000000" stroke="none" 
	d="
M121.932045,124.107719 
	C122.114212,124.090813 122.296387,124.073906 122.751839,124.030334 
	C123.067589,124.447060 123.110046,124.890450 123.124229,125.668167 
	C122.925392,126.007210 122.754837,126.011909 122.281219,126.003281 
	C121.978142,125.989960 121.877449,125.912140 121.897942,125.611343 
	C121.922966,124.909607 121.927505,124.508659 121.932045,124.107719 
z"/>
<path fill="#BFD8FA" opacity="1.000000" stroke="none" 
	d="
M149.125946,157.912445 
	C148.955673,157.830063 148.935349,157.663986 148.989731,157.258423 
	C149.194336,157.192581 149.344391,157.355972 149.441025,157.546463 
	C149.467712,157.599075 149.335281,157.732422 149.125946,157.912445 
z"/>
<path fill="#CFD8E7" opacity="1.000000" stroke="none" 
	d="
M125.723404,171.987579 
	C125.703163,172.084549 125.450584,172.185471 125.112160,172.139404 
	C125.026314,171.992447 125.491058,171.991516 125.723404,171.987579 
z"/>
<path fill="#FDE3DD" opacity="1.000000" stroke="none" 
	d="
M181.660889,83.003304 
	C181.953384,84.450714 181.966965,85.785240 181.552628,87.574127 
	C178.628754,87.401848 176.132797,86.775215 173.712265,85.754189 
	C173.772018,84.557579 173.756332,83.755363 174.013260,82.896332 
	C174.528015,82.569817 174.770142,82.300110 175.012268,82.030396 
	C176.382187,81.698761 177.752121,81.367134 179.485291,81.054626 
	C180.359680,81.679314 180.870834,82.284866 181.660889,83.003304 
z"/>
<path fill="#E2E1E5" opacity="1.000000" stroke="none" 
	d="
M150.421600,131.998367 
	C152.449783,130.094833 154.902466,128.192093 157.677567,126.144379 
	C158.776764,131.768860 155.108917,132.238739 150.421600,131.998367 
z"/>
<path fill="#E45444" opacity="1.000000" stroke="none" 
	d="
M105.076920,88.353401 
	C107.937714,87.506393 109.382317,85.250435 111.429970,83.473488 
	C114.061241,81.190079 118.727692,80.675125 122.567253,80.501671 
	C127.786751,80.265869 133.052567,81.330734 138.300079,81.347572 
	C142.065491,81.359650 141.748169,84.239227 142.848419,86.667236 
	C142.045639,88.569733 141.147446,91.464226 140.139053,91.503143 
	C130.095383,91.890800 120.030190,91.948990 109.980095,91.714211 
	C108.347198,91.676056 106.758400,89.750771 105.076920,88.353401 
z"/>
<path fill="#E25447" opacity="1.000000" stroke="none" 
	d="
M68.416809,86.979736 
	C69.896477,79.890305 76.752571,76.496231 83.672256,79.961441 
	C83.831680,81.057228 83.764153,81.538673 83.696617,82.020111 
	C79.934532,87.252647 73.816284,85.405228 68.416809,86.979736 
z"/>
<path fill="#E58F8D" opacity="1.000000" stroke="none" 
	d="
M83.739075,82.378677 
	C83.764153,81.538673 83.831680,81.057228 83.925720,80.209625 
	C86.244812,80.207840 88.698303,80.206886 90.752754,81.111855 
	C91.604813,81.487175 91.603615,83.799545 91.931625,85.567924 
	C90.155495,86.257523 88.449623,86.822342 86.718323,86.915718 
	C83.736473,87.076538 82.557625,85.678673 83.739075,82.378677 
z"/>
<path fill="#D97067" opacity="1.000000" stroke="none" 
	d="
M153.061569,81.921112 
	C153.674057,82.726212 154.286530,83.531303 154.941803,84.645935 
	C154.419037,87.994217 153.677780,90.812584 149.745163,91.022560 
	C147.076813,91.165039 144.724869,91.012489 144.006317,87.378418 
	C143.925079,87.002182 143.983780,86.998055 144.293976,86.984238 
	C144.791428,86.957703 144.978683,86.944977 145.493317,87.103317 
	C147.606949,87.916542 149.393219,88.558693 152.025040,89.504814 
	C152.025040,86.811081 152.025040,84.900772 152.240341,82.858261 
	C152.657623,82.457741 152.859589,82.189423 153.061569,81.921112 
z"/>
<path fill="#D45D4E" opacity="1.000000" stroke="none" 
	d="
M173.740646,82.953140 
	C173.756332,83.755363 173.772018,84.557579 173.534851,85.996323 
	C173.172485,87.435921 173.062943,88.238998 172.953415,89.042076 
	C171.616226,89.036736 170.279022,89.031395 168.389374,88.820190 
	C167.556747,88.408974 167.276566,88.203621 166.985703,87.579262 
	C167.050598,85.770103 167.126190,84.379951 167.201767,82.989799 
	C168.912949,83.080467 170.624130,83.171135 172.836945,83.123840 
	C173.338593,82.985878 173.740646,82.953140 173.740646,82.953140 
z"/>
<path fill="#D97067" opacity="1.000000" stroke="none" 
	d="
M166.996384,87.998268 
	C167.276566,88.203621 167.556747,88.408974 167.988388,88.832031 
	C160.236801,92.289307 159.240417,91.987633 157.075378,85.339760 
	C157.538086,84.098137 158.051651,83.231903 158.818405,82.604828 
	C159.432907,88.949608 161.404388,90.231857 166.996384,87.998268 
z"/>
<path fill="#E46A56" opacity="1.000000" stroke="none" 
	d="
M172.969727,89.276443 
	C173.062943,88.238998 173.172485,87.435921 173.459427,86.390709 
	C176.132797,86.775215 178.628754,87.401848 181.541656,87.974998 
	C180.152023,92.043983 176.548508,89.159325 173.455109,89.984344 
	C173.012772,89.979935 172.986038,89.510818 172.969727,89.276443 
z"/>
<path fill="#FCDFDB" opacity="1.000000" stroke="none" 
	d="
M166.985703,87.579262 
	C161.404388,90.231857 159.432907,88.949608 159.071503,82.439430 
	C161.599594,82.142448 164.127792,82.250031 166.928864,82.673706 
	C167.126190,84.379951 167.050598,85.770103 166.985703,87.579262 
z"/>
<path fill="#FEE6E4" opacity="1.000000" stroke="none" 
	d="
M152.025040,82.990463 
	C152.025040,84.900772 152.025040,86.811081 152.025040,89.504814 
	C149.393219,88.558693 147.606949,87.916542 145.438080,86.736160 
	C144.956818,85.464485 144.858154,84.731049 144.759506,83.997604 
	C144.798920,83.832199 144.838348,83.666786 145.376755,83.234985 
	C147.925507,82.975891 149.975281,82.983177 152.025040,82.990463 
z"/>
<path fill="#D47967" opacity="1.000000" stroke="none" 
	d="
M152.240341,82.858261 
	C149.975281,82.983177 147.925507,82.975891 145.436554,82.987030 
	C146.665909,78.464890 149.575790,79.548279 152.849487,81.620117 
	C152.859589,82.189423 152.657623,82.457741 152.240341,82.858261 
z"/>
<path fill="#E46A56" opacity="1.000000" stroke="none" 
	d="
M174.013260,82.896332 
	C173.740646,82.953140 173.338593,82.985878 173.136780,82.970306 
	C173.507950,82.509254 174.080933,82.063789 174.833084,81.824356 
	C174.770142,82.300110 174.528015,82.569817 174.013260,82.896332 
z"/>
<path fill="#D47967" opacity="1.000000" stroke="none" 
	d="
M144.561020,84.245972 
	C144.858154,84.731049 144.956818,85.464485 145.110718,86.565094 
	C144.978683,86.944977 144.791428,86.957703 144.323303,86.981956 
	C144.149155,86.160439 144.255844,85.327393 144.561020,84.245972 
z"/>
<path fill="#DA4C45" opacity="1.000000" stroke="none" 
	d="
M95.484299,80.472794 
	C95.517906,80.456337 95.450684,80.489250 95.484299,80.472794 
z"/>
<path fill="#3988D1" opacity="1.000000" stroke="none" 
	d="
M122.026794,126.030975 
	C122.006897,126.407379 121.840141,126.683426 121.361198,127.019333 
	C121.147224,127.138535 121.047333,127.041237 121.120163,126.790344 
	C121.380814,126.286339 121.608971,126.077232 121.877449,125.912140 
	C121.877449,125.912140 121.978142,125.989960 122.026794,126.030975 
z"/>
<path fill="#D47E71" opacity="1.000000" stroke="none" 
	d="
M145.385803,129.139862 
	C141.319199,129.256836 137.631027,129.301056 133.643631,129.126129 
	C133.209274,112.571098 130.965469,115.455482 147.302490,115.532845 
	C147.416336,116.192421 147.187958,116.553261 146.538544,116.932556 
	C142.268372,116.464378 140.315659,117.903366 140.596786,122.000214 
	C136.012100,122.126823 135.987000,122.150192 137.080963,125.388176 
	C141.253830,125.934814 145.323242,126.097359 149.392670,126.259903 
	C148.183182,127.195641 146.973694,128.131363 145.385803,129.139862 
z"/>
<path fill="#E7894D" opacity="1.000000" stroke="none" 
	d="
M146.959595,116.914101 
	C147.187958,116.553261 147.416336,116.192421 147.742355,115.646088 
	C153.710083,115.460594 159.580154,115.460594 165.450226,115.460594 
	C165.629150,115.873573 165.808075,116.286560 165.987000,116.699539 
	C162.203629,120.913528 156.319046,121.956444 151.137756,124.691917 
	C150.034485,123.008629 149.618103,121.539818 148.978928,120.175385 
	C148.440170,119.025352 147.642609,117.996559 146.959595,116.914101 
z"/>
<path fill="#E36247" opacity="1.000000" stroke="none" 
	d="
M146.538544,116.932556 
	C147.642609,117.996559 148.440170,119.025352 148.978928,120.175385 
	C149.618103,121.539818 150.034485,123.008629 150.780823,124.719193 
	C150.635315,125.358772 150.256393,125.711357 149.635071,126.161926 
	C145.323242,126.097359 141.253830,125.934814 137.510803,125.393883 
	C138.958008,125.010925 140.132248,125.211952 141.183289,124.938896 
	C142.077240,124.706635 142.829239,123.928024 143.644043,123.391144 
	C142.757828,122.929169 141.871628,122.467194 140.985413,122.005211 
	C140.315659,117.903366 142.268372,116.464378 146.538544,116.932556 
z"/>
<path fill="#239BED" opacity="1.000000" stroke="none" 
	d="
M121.897942,125.611343 
	C121.608971,126.077232 121.380814,126.286339 121.072723,126.739243 
	C116.282677,130.422882 111.612892,133.906738 106.726219,137.552414 
	C102.656609,134.648376 95.619720,133.881393 96.981796,125.458832 
	C100.906548,123.157265 104.687851,120.446602 108.806252,125.131371 
	C109.480614,125.898476 112.315254,124.711380 114.160927,124.517776 
	C116.503654,124.272034 118.856064,124.118484 121.568169,124.016449 
	C121.927505,124.508659 121.922966,124.909607 121.897942,125.611343 
z"/>
<path fill="#657CB8" opacity="1.000000" stroke="none" 
	d="
M107.138702,119.286858 
	C110.167274,118.694054 113.322052,118.431557 116.864166,118.217888 
	C115.401039,119.872139 113.739960,121.804070 111.658569,123.011398 
	C107.936111,125.170639 108.416740,121.190323 107.138702,119.286858 
z"/>
<path fill="#CDD8E6" opacity="1.000000" stroke="none" 
	d="
M158.511353,174.532623 
	C158.475143,174.550262 158.547577,174.514984 158.511353,174.532623 
z"/>
<path fill="#E47367" opacity="1.000000" stroke="none" 
	d="
M140.596786,122.000214 
	C141.871628,122.467194 142.757828,122.929169 143.644043,123.391144 
	C142.829239,123.928024 142.077240,124.706635 141.183289,124.938896 
	C140.132248,125.211952 138.958008,125.010925 137.407364,125.009789 
	C135.987000,122.150192 136.012100,122.126823 140.596786,122.000214 
z"/>
</svg>